<svg width="138" height="44" viewBox="0 0 138 44" fill="none" xmlns="http://www.w3.org/2000/svg">
<path d="M11 22C11 15.928 15.928 11 22 11C28.072 11 33 15.928 33 22H44C44 9.845 34.155 0 22 0C9.845 0 0 9.845 0 22C0 34.155 9.845 44 22 44V33C15.928 33 11 28.072 11 22Z" fill="#0C1014"/>
<path opacity="0.5" d="M22 22H33V33H22V22Z" fill="#0C1014"/>
<path d="M41.052 33H33V41.052C36.344 39.116 39.127 36.333 41.052 33Z" fill="#0C1014"/>
<path opacity="0.5" d="M78.2985 9.75781C77.5395 9.75781 76.9125 9.99981 76.4065 10.4838C75.9005 10.9678 75.6475 11.5728 75.6475 12.3098C75.6475 13.0468 75.9005 13.6518 76.4065 14.1468C76.9125 14.6418 77.5395 14.8948 78.2985 14.8948C79.0575 14.8948 79.6735 14.6418 80.1685 14.1468C80.6635 13.6518 80.9165 13.0358 80.9165 12.3098C80.9165 11.5838 80.6745 10.9678 80.1685 10.4838C79.6625 9.99981 79.0465 9.75781 78.2985 9.75781Z" fill="#0C1014"/>
<path opacity="0.5" d="M103.862 14.8948C104.621 14.8948 105.237 14.6418 105.732 14.1468C106.227 13.6518 106.48 13.0358 106.48 12.3098C106.48 11.5838 106.238 10.9678 105.732 10.4838C105.226 9.99981 104.61 9.75781 103.862 9.75781C103.114 9.75781 102.476 9.99981 101.97 10.4838C101.464 10.9678 101.211 11.5728 101.211 12.3098C101.211 13.0468 101.464 13.6518 101.97 14.1468C102.476 14.6418 103.103 14.8948 103.862 14.8948Z" fill="#0C1014"/>
<path d="M69.7402 11.5842C68.4972 10.9682 67.0782 10.6602 65.4612 10.6602H56.2432V33.2872H61.0942V25.6862H65.4612C67.0782 25.6862 68.5082 25.3782 69.7402 24.7622C70.9722 24.1462 71.9402 23.2772 72.6222 22.1442C73.3042 21.0112 73.6452 19.6912 73.6452 18.1842C73.6452 16.6772 73.3042 15.3462 72.6222 14.2132C71.9402 13.0802 70.9832 12.1892 69.7402 11.5732V11.5842ZM67.7272 20.7142C67.0562 21.3412 66.1542 21.6492 65.0102 21.6492H61.0942V14.6972H65.0102C66.1542 14.6972 67.0562 15.0052 67.7272 15.6322C68.3982 16.2592 68.7282 17.1062 68.7282 18.1842C68.7282 19.2622 68.3982 20.0762 67.7272 20.7032V20.7142Z" fill="#0C1014"/>
<path d="M80.553 16.6641H75.999V33.2851H80.553V16.6641Z" fill="#0C1014"/>
<path d="M99.5943 16.6641H94.7103L91.1903 21.5811L87.7363 16.6641H82.5223L88.4073 24.8151L82.2363 33.2851H87.1203L90.9043 28.0821L94.7103 33.2851H99.9133L93.7423 24.8151L99.5943 16.6641Z" fill="#0C1014"/>
<path d="M132.274 16.6654L128.326 28.5894L124.288 16.6654H114.916V15.8844C114.916 15.4114 115.026 15.0704 115.235 14.8504C115.455 14.6304 115.796 14.5314 116.269 14.5314H119.085V10.6484H115.367C113.706 10.6484 112.463 11.0444 111.616 11.8254C110.769 12.6064 110.351 13.7394 110.351 15.2024V16.6544H101.562V33.2754H106.116V20.5044H110.351V33.2754H114.905V20.5044H120.901L125.828 33.3744L125.41 34.4744C125.168 35.0354 124.926 35.4094 124.662 35.6074C124.398 35.8054 123.98 35.8934 123.397 35.8934H120.878V39.7434H125.311C126.147 39.7434 126.84 39.6004 127.368 39.3034C127.896 39.0174 128.337 38.5774 128.677 38.0054C129.018 37.4334 129.392 36.6414 129.778 35.6294L137.147 16.6544H132.263L132.274 16.6654Z" fill="#0C1014"/>
</svg>
